<svg width="24" height="24" viewBox="0 0 24 24" fill="none" xmlns="http://www.w3.org/2000/svg">
<mask id="mask0_18_356" style="mask-type:alpha" maskUnits="userSpaceOnUse" x="0" y="0" width="24" height="24">
<rect width="24" height="24" fill="#D9D9D9"/>
</mask>
<g mask="url(#mask0_18_356)">
<path d="M8 17H16C16.2833 17 16.5208 16.9042 16.7125 16.7125C16.9042 16.5208 17 16.2833 17 16C17 15.7167 16.9042 15.4792 16.7125 15.2875C16.5208 15.0958 16.2833 15 16 15H8C7.71667 15 7.47917 15.0958 7.2875 15.2875C7.09583 15.4792 7 15.7167 7 16C7 16.2833 7.09583 16.5208 7.2875 16.7125C7.47917 16.9042 7.71667 17 8 17ZM11 10.15L10.1 9.275C9.91667 9.09167 9.6875 9 9.4125 9C9.1375 9 8.9 9.1 8.7 9.3C8.51667 9.48333 8.425 9.71667 8.425 10C8.425 10.2833 8.51667 10.5167 8.7 10.7L11.3 13.3C11.5 13.5 11.7333 13.6 12 13.6C12.2667 13.6 12.5 13.5 12.7 13.3L15.3 10.7C15.4833 10.5167 15.5792 10.2875 15.5875 10.0125C15.5958 9.7375 15.5 9.5 15.3 9.3C15.1167 9.11667 14.8875 9.02083 14.6125 9.0125C14.3375 9.00417 14.1 9.09167 13.9 9.275L13 10.15V7C13 6.71667 12.9042 6.47917 12.7125 6.2875C12.5208 6.09583 12.2833 6 12 6C11.7167 6 11.4792 6.09583 11.2875 6.2875C11.0958 6.47917 11 6.71667 11 7V10.15ZM12 22C10.6167 22 9.31667 21.7375 8.1 21.2125C6.88333 20.6875 5.825 19.975 4.925 19.075C4.025 18.175 3.3125 17.1167 2.7875 15.9C2.2625 14.6833 2 13.3833 2 12C2 10.6167 2.2625 9.31667 2.7875 8.1C3.3125 6.88333 4.025 5.825 4.925 4.925C5.825 4.025 6.88333 3.3125 8.1 2.7875C9.31667 2.2625 10.6167 2 12 2C13.3833 2 14.6833 2.2625 15.9 2.7875C17.1167 3.3125 18.175 4.025 19.075 4.925C19.975 5.825 20.6875 6.88333 21.2125 8.1C21.7375 9.31667 22 10.6167 22 12C22 13.3833 21.7375 14.6833 21.2125 15.9C20.6875 17.1167 19.975 18.175 19.075 19.075C18.175 19.975 17.1167 20.6875 15.9 21.2125C14.6833 21.7375 13.3833 22 12 22ZM12 20C14.2333 20 16.125 19.225 17.675 17.675C19.225 16.125 20 14.2333 20 12C20 9.76667 19.225 7.875 17.675 6.325C16.125 4.775 14.2333 4 12 4C9.76667 4 7.875 4.775 6.325 6.325C4.775 7.875 4 9.76667 4 12C4 14.2333 4.775 16.125 6.325 17.675C7.875 19.225 9.76667 20 12 20Z" fill="#5A7B99"/>
</g>
</svg>
