<svg width="136" height="128" viewBox="0 0 136 128" fill="none" xmlns="http://www.w3.org/2000/svg">
<path d="M123.206 39.2102L67.9643 7.35193L12.7535 39.2612L12.7841 88.1718L68.0255 120.03L123.236 88.1207L123.206 39.2102Z" fill="#2E2D2C"/>
<path d="M136 67.7907L74.6218 35.1155V0L136 31.3171V67.7907Z" fill="#5A7B99"/>
<path d="M74.6218 99.1179V64.0024L136 31.317V67.7907L74.6218 99.1179Z" fill="white"/>
<path d="M74.6218 99.1179V64.0024L136 31.317V67.7907L74.6218 99.1179Z" fill="#9AB2C6"/>
<path d="M61.3782 127.392V92.2766L0 59.5912V96.0649L61.3782 127.392Z" fill="#5A7B99"/>
<path d="M0 96.0649L61.3782 63.3897V28.2742L0 59.5913V96.0649Z" fill="white"/>
<path d="M0 96.0649L61.3782 63.3897V28.2742L0 59.5913V96.0649Z" fill="#9AB2C6"/>
</svg>
