<svg id="Ebene_1" data-name="Ebene 1" xmlns="http://www.w3.org/2000/svg" viewBox="0 0 159.08 113.97"><defs><style>.cls-1{fill:#20201e;}.cls-2{fill:#7c919a;}</style></defs><title>genesis-new-logo</title><path class="cls-1" d="M47.83,59.28h30.5q0,10.91-8.67,20.43-9.52,10.22-22,10.35Q34,90.06,24.74,78.17a39.33,39.33,0,0,1-8-24.49q0-16.23,10.21-27c5.1-5.33,11-6.39,17.6-7.17L59.23,19h2L74,18.84l88.14-.4V8.1H47.55c-11.13,0-20.79,2.42-29,11.15Q5.71,33.53,5.57,53.68T18.44,88q12.47,13.16,29.25,13.3T76.51,88.1q13-14.13,13-34.42v-5.6H47.83Z" transform="translate(-5.57 -8.1)"/><path class="cls-2" d="M147.72,74.36q-3.36-1.55-20-8.12-13.42-5.17-15.81-9.79a7.08,7.08,0,0,1-.7-2.94q0-8.11,8.54-12.59a23.91,23.91,0,0,1,11.33-2.8q10.35,0,16.37,6.57a12.94,12.94,0,0,1,3.5,8.82h11.19q0-11.61-10.07-19.59a33.14,33.14,0,0,0-21-7Q116,26.92,106.72,37A24,24,0,0,0,100,53.51Q100,66,116.94,74.36q3.21,1.55,19.73,8,13.56,5.33,16,10.08a6.38,6.38,0,0,1,.84,3.08q0,7.7-9.1,12.31a23.2,23.2,0,0,1-11,3l-2.93.14L8.2,112.61v9.46h123l3.34-.13c9.74-.35,16.13-3.6,22.56-9.94q7.41-7.56,7.55-16.51Q164.65,82.89,147.72,74.36Z" transform="translate(-5.57 -8.1)"/></svg>