<?xml version="1.0" encoding="utf-8"?>
<!-- Generator: Adobe Illustrator 23.0.3, SVG Export Plug-In . SVG Version: 6.00 Build 0)  -->
<svg version="1.1" id="Ebene_1" xmlns="http://www.w3.org/2000/svg" xmlns:xlink="http://www.w3.org/1999/xlink" x="0px" y="0px"
	 viewBox="0 0 151.6 142.8" style="enable-background:new 0 0 151.6 142.8;" xml:space="preserve">
<style type="text/css">
	.st0{fill:#F5F5F5;}
	.st1{fill:#2E2D2C;}
	.st2{fill:#4F7494;}
	.st3{fill:#FFFFFF;}
	.st4{fill:#9AB2C6;}
</style>
<path class="st0" d="M147.2,32.3L85.8,1c-1.1-0.5-2.2-0.8-3.4-0.8c-1.4,0-2.7,0.4-3.9,1.1c-2.2,1.3-61.7,39.2-61.7,39.2
	C14.5,41.8,13,44.3,13,47l0,9.2l-8.7,4.4c-2.5,1.3-4.1,3.8-4.1,6.7v36.5c0,2.8,1.6,5.4,4.1,6.7l61.4,31.3c1.1,0.5,2.2,0.8,3.4,0.8
	c1.4,0,2.7-0.4,3.9-1.1c2.2-1.3,61.7-39.2,61.7-39.2c2.3-1.3,3.7-3.8,3.7-6.5l0-9.2l8.7-4.4c2.5-1.3,4.1-3.8,4.1-6.7V39
	C151.3,36.2,149.7,33.6,147.2,32.3z"/>
<path class="st1" d="M131,46.9L75.7,15L20.5,47l0,48.9l55.2,31.9L131,95.8L131,46.9z"/>
<path class="st2" d="M143.8,75.5L82.4,42.8V7.7L143.8,39V75.5z"/>
<path class="st3" d="M82.4,106.8V71.7L143.8,39v36.5L82.4,106.8z"/>
<path class="st4" d="M82.4,106.8V71.7L143.8,39v36.5L82.4,106.8z"/>
<path class="st2" d="M69.1,135.1V100L7.8,67.3v36.5L69.1,135.1z"/>
<path class="st3" d="M7.8,103.8l61.4-32.7V36L7.8,67.3V103.8z"/>
<path class="st4" d="M7.8,103.8l61.4-32.7V36L7.8,67.3V103.8z"/>
</svg>
