<?xml version="1.0" encoding="utf-8"?>
<!-- Generator: Adobe Illustrator 23.0.3, SVG Export Plug-In . SVG Version: 6.00 Build 0)  -->
<svg version="1.1" id="Layer_1" xmlns="http://www.w3.org/2000/svg" xmlns:xlink="http://www.w3.org/1999/xlink" x="0px" y="0px"
	 viewBox="0 0 316 316" style="enable-background:new 0 0 316 316;" xml:space="preserve">
<style type="text/css">
	.st0{fill:#FFFFFF;}
	.st1{fill:none;stroke:#000000;stroke-miterlimit:10;}
</style>
<rect class="st0" width="316" height="316"/>
<g>
	<g>
		<path d="M241.47,182c0,17.7-14.4,30-38.1,30c-12.45,0-22.5-6.3-29.4-6.3c-3.9,0-5.7,2.85-6.75,5.4h-0.75v-33.45h0.75
			c4.05,16.8,14.7,33.6,36.15,33.6c16.35,0,26.85-7.8,26.85-22.5s-14.7-19.05-32.7-27c-20.1-8.7-29.1-15.75-29.1-30.9
			c0-15.45,14.4-26.85,32.7-26.85c13.05,0,17.7,6.15,23.55,6.15c3.9,0,4.8-1.5,6-4.05h0.75v26.4h-0.6
			c-4.2-16.8-13.65-27.75-29.7-27.75c-15.45,0-22.65,8.85-22.65,18.15c0,8.25,3.9,15.75,25.35,24
			C234.72,159.05,241.47,167.9,241.47,182z"/>
	</g>
</g>
<g>
	<path d="M143.26,194.01h14.63v-1h-14.32C143.47,193.35,143.36,193.68,143.26,194.01z"/>
	<path d="M42.5,193.01v-4.89H71c-0.2-0.33-0.39-0.66-0.58-1H42.5v-53.11h25.34c0.15-0.34,0.31-0.67,0.46-1H41.5v54.11h-4.67v-59
		h33.98c0.19-0.33,0.38-0.67,0.58-1H35.83v61h5.67v5.89h33.46c-0.25-0.33-0.5-0.66-0.75-1H42.5z"/>
	<path d="M154.14,128.13v-1h-4.45c0.14,0.33,0.28,0.67,0.42,1H154.14z"/>
	<path d="M152.21,134.01h1.93v-1h-2.24C152.01,133.35,152.11,133.68,152.21,134.01z"/>
	<path d="M144.7,188.13h13.19v-1h-13.02C144.81,187.46,144.75,187.8,144.7,188.13z"/>
</g>
<g>
	<g>
		<path d="M107.17,161.24c-0.14,0.22-0.35,0.41-0.65,0.57s-0.68,0.25-1.14,0.25c-0.59,0-1.07-0.18-1.44-0.54s-0.54-0.88-0.54-1.55
			v-1.69c0-0.66,0.18-1.17,0.53-1.53s0.82-0.54,1.4-0.54c0.58,0,1.02,0.15,1.33,0.45s0.46,0.7,0.45,1.22l-0.01,0.02h-0.75
			c0-0.34-0.09-0.61-0.26-0.79s-0.43-0.28-0.76-0.28c-0.36,0-0.64,0.12-0.84,0.37s-0.31,0.61-0.31,1.08v1.7
			c0,0.48,0.11,0.85,0.32,1.11s0.5,0.38,0.87,0.38c0.27,0,0.48-0.04,0.64-0.13s0.28-0.19,0.35-0.3v-1.32h-1.05v-0.58h1.84V161.24z"
			/>
		<path d="M110.95,159.34h-1.93v2.04h2.27v0.6h-3.07v-5.69h3.05v0.61h-2.25v1.83h1.93V159.34z"/>
		<path d="M115.9,161.98h-0.8l-2.2-4.2l-0.02,0.01v4.19h-0.79v-5.69h0.79l2.2,4.18l0.02,0v-4.18h0.8V161.98z"/>
		<path d="M119.71,159.34h-1.93v2.04h2.27v0.6h-3.07v-5.69h3.05v0.61h-2.25v1.83h1.93V159.34z"/>
		<path d="M123.45,160.55c0-0.26-0.07-0.47-0.22-0.64s-0.41-0.32-0.79-0.46c-0.53-0.17-0.94-0.38-1.23-0.64s-0.43-0.61-0.43-1.05
			c0-0.45,0.16-0.82,0.47-1.11s0.72-0.44,1.22-0.44c0.53,0,0.95,0.16,1.27,0.48s0.47,0.73,0.46,1.21l-0.01,0.02h-0.76
			c0-0.33-0.09-0.6-0.27-0.81s-0.41-0.31-0.7-0.31c-0.28,0-0.5,0.09-0.65,0.27s-0.23,0.4-0.23,0.66c0,0.25,0.08,0.45,0.25,0.61
			s0.44,0.31,0.83,0.46c0.52,0.17,0.91,0.39,1.18,0.66s0.41,0.63,0.41,1.06c0,0.46-0.16,0.83-0.48,1.11s-0.74,0.41-1.26,0.41
			c-0.5,0-0.94-0.15-1.3-0.45s-0.55-0.72-0.54-1.28l0.01-0.02h0.77c0,0.39,0.1,0.67,0.31,0.86s0.46,0.29,0.76,0.29
			c0.29,0,0.52-0.08,0.69-0.25S123.45,160.83,123.45,160.55z"/>
		<path d="M125.99,161.98h-0.79v-5.69h0.79V161.98z"/>
		<path d="M129.74,160.55c0-0.26-0.07-0.47-0.22-0.64s-0.41-0.32-0.79-0.46c-0.53-0.17-0.94-0.38-1.23-0.64s-0.43-0.61-0.43-1.05
			c0-0.45,0.16-0.82,0.47-1.11s0.72-0.44,1.22-0.44c0.53,0,0.95,0.16,1.27,0.48s0.47,0.73,0.46,1.21l-0.01,0.02h-0.76
			c0-0.33-0.09-0.6-0.27-0.81s-0.41-0.31-0.7-0.31c-0.28,0-0.5,0.09-0.65,0.27s-0.23,0.4-0.23,0.66c0,0.25,0.08,0.45,0.25,0.61
			s0.44,0.31,0.83,0.46c0.52,0.17,0.91,0.39,1.18,0.66s0.41,0.63,0.41,1.06c0,0.46-0.16,0.83-0.48,1.11s-0.74,0.41-1.26,0.41
			c-0.5,0-0.94-0.15-1.3-0.45s-0.55-0.72-0.54-1.28l0.01-0.02h0.77c0,0.39,0.1,0.67,0.31,0.86s0.46,0.29,0.76,0.29
			c0.29,0,0.52-0.08,0.69-0.25S129.74,160.83,129.74,160.55z"/>
		<path d="M135.77,160.55c0-0.26-0.07-0.47-0.22-0.64s-0.41-0.32-0.79-0.46c-0.53-0.17-0.94-0.38-1.23-0.64s-0.43-0.61-0.43-1.05
			c0-0.45,0.16-0.82,0.47-1.11s0.72-0.44,1.22-0.44c0.53,0,0.95,0.16,1.27,0.48s0.47,0.73,0.46,1.21l-0.01,0.02h-0.76
			c0-0.33-0.09-0.6-0.27-0.81s-0.41-0.31-0.7-0.31c-0.28,0-0.5,0.09-0.65,0.27s-0.23,0.4-0.23,0.66c0,0.25,0.08,0.45,0.25,0.61
			s0.44,0.31,0.83,0.46c0.52,0.17,0.91,0.39,1.18,0.66s0.41,0.63,0.41,1.06c0,0.46-0.16,0.83-0.48,1.11s-0.74,0.41-1.26,0.41
			c-0.5,0-0.94-0.15-1.3-0.45s-0.55-0.72-0.54-1.28l0.01-0.02h0.77c0,0.39,0.1,0.67,0.31,0.86s0.46,0.29,0.76,0.29
			c0.29,0,0.52-0.08,0.69-0.25S135.77,160.83,135.77,160.55z"/>
		<path d="M139.97,160.54h-1.7l-0.41,1.44h-0.82l1.71-5.69h0.77l1.69,5.69h-0.82L139.97,160.54z M138.45,159.91h1.34l-0.66-2.31
			h-0.02L138.45,159.91z"/>
		<path d="M145.67,161.98h-0.8l-2.2-4.2l-0.02,0.01v4.19h-0.79v-5.69h0.79l2.2,4.18l0.02,0v-4.18h0.8V161.98z"/>
		<path d="M146.76,161.98v-5.69h1.61c0.61,0,1.12,0.23,1.51,0.68s0.58,1.04,0.58,1.76v0.81c0,0.72-0.19,1.3-0.58,1.76
			s-0.89,0.68-1.51,0.68H146.76z M147.55,156.9v4.48h0.82c0.39,0,0.7-0.17,0.94-0.51s0.35-0.78,0.35-1.32v-0.82
			c0-0.53-0.12-0.97-0.35-1.31s-0.55-0.51-0.94-0.51H147.55z"/>
		<path d="M155.24,159.92c0,0.67-0.18,1.2-0.55,1.58s-0.85,0.56-1.46,0.56c-0.6,0-1.08-0.19-1.44-0.56s-0.54-0.9-0.54-1.58v-1.56
			c0-0.67,0.18-1.2,0.54-1.58s0.84-0.57,1.44-0.57c0.61,0,1.1,0.19,1.47,0.57s0.55,0.91,0.55,1.58V159.92z M154.45,158.35
			c0-0.49-0.11-0.87-0.32-1.13s-0.52-0.38-0.91-0.38c-0.38,0-0.67,0.13-0.88,0.38s-0.31,0.63-0.31,1.13v1.57
			c0,0.5,0.1,0.88,0.31,1.14s0.5,0.39,0.88,0.39c0.39,0,0.7-0.13,0.91-0.38s0.32-0.64,0.32-1.14V158.35z"/>
		<path d="M157.64,160.68l0.08,0.35h0.02l0.08-0.34l1.18-4.39h0.85l-1.74,5.69h-0.77l-1.73-5.69h0.84L157.64,160.68z"/>
		<path d="M162.71,160.54h-1.7l-0.41,1.44h-0.82l1.71-5.69h0.77l1.69,5.69h-0.82L162.71,160.54z M161.19,159.91h1.34l-0.66-2.31
			h-0.02L161.19,159.91z"/>
		<path d="M165.39,161.38h2.3v0.6h-3.09v-5.69h0.79V161.38z"/>
	</g>
</g>
<g>
	<path d="M125.64,168.5h20.1v6.3c0,25.35-8.85,36.45-27.75,36.45c-29.4,0-36.9-31.65-36.9-53.25c0-21.75,7.5-53.25,36.9-53.25
		c21.45,0,31.35,16.65,35.4,33.6h0.75V106.1h-0.75c-1.2,2.55-2.85,4.05-6.75,4.05c-6.9,0-16.2-6.15-28.65-6.15
		c-31.2,0-52.05,25.35-52.05,54c0,28.5,20.85,54,52.05,54c18.15,0,24.75-11.4,32.55-11.4c4.95,0,6.15,5.1,6.6,10.5h0.75v-42.6h10.05
		v-0.75h-42.3V168.5z"/>
	<rect x="118.22" y="165.48" width="49.72" height="1"/>
</g>
<line class="st1" x1="125.58" y1="168.29" x2="167.94" y2="168.29"/>
<g>
	<polygon points="273.86,127.13 273.86,120.61 234.56,120.61 234.56,121.61 272.86,121.61 272.86,127.13 234.56,127.13 
		234.56,128.13 272.86,128.13 272.86,180.61 244.47,180.61 244.47,181.61 273.86,181.61 273.86,128.13 279.17,128.13 279.17,187.13 
		244.09,187.13 243.92,188.13 280.17,188.13 280.17,127.13 	"/>
</g>
</svg>
