<svg width="19" height="18" viewBox="0 0 19 18" fill="none" xmlns="http://www.w3.org/2000/svg">
<path fill-rule="evenodd" clip-rule="evenodd" d="M9.16009 0C4.0948 0 0 4.12498 0 9.22815C0 13.3074 2.62368 16.7604 6.26341 17.9825C6.71847 18.0744 6.88516 17.7839 6.88516 17.5396C6.88516 17.3257 6.87016 16.5924 6.87016 15.8283C4.32204 16.3784 3.79142 14.7283 3.79142 14.7283C3.38192 13.6588 2.77518 13.3839 2.77518 13.3839C1.94118 12.8186 2.83593 12.8186 2.83593 12.8186C3.76105 12.8797 4.24648 13.7658 4.24648 13.7658C5.06529 15.1713 6.38472 14.7742 6.91553 14.5297C6.99128 13.9338 7.2341 13.5213 7.49191 13.2922C5.4596 13.0783 3.32136 12.2838 3.32136 8.73915C3.32136 7.73078 3.68511 6.90578 4.26148 6.26416C4.17055 6.03504 3.85198 5.0876 4.35261 3.81955C4.35261 3.81955 5.12604 3.57505 6.86997 4.76679C7.61661 4.56479 8.38661 4.46203 9.16009 4.46117C9.93352 4.46117 10.722 4.56823 11.45 4.76679C13.1941 3.57505 13.9676 3.81955 13.9676 3.81955C14.4682 5.0876 14.1494 6.03504 14.0585 6.26416C14.6501 6.90578 14.9988 7.73078 14.9988 8.73915C14.9988 12.2838 12.8606 13.0629 10.8131 13.2922C11.1468 13.5824 11.4348 14.1324 11.4348 15.0033C11.4348 16.2408 11.4198 17.234 11.4198 17.5394C11.4198 17.7839 11.5867 18.0744 12.0416 17.9827C15.6813 16.7602 18.305 13.3074 18.305 9.22815C18.32 4.12498 14.2102 0 9.16009 0Z" fill="#2E2D2C"/>
</svg>
