<svg width="24" height="24" viewBox="0 0 24 24" fill="none" xmlns="http://www.w3.org/2000/svg">
<mask id="mask0_18_357" style="mask-type:alpha" maskUnits="userSpaceOnUse" x="0" y="0" width="24" height="24">
<rect width="24" height="24" fill="#D9D9D9"/>
</mask>
<g mask="url(#mask0_18_357)">
<path fill-rule="evenodd" clip-rule="evenodd" d="M11.7613 2C6.13314 2 1.58334 6.58333 1.58334 12.2535C1.58334 16.786 4.49855 20.6227 8.54272 21.9806C9.04834 22.0827 9.23355 21.76 9.23355 21.4885C9.23355 21.2508 9.21689 20.436 9.21689 19.5871C6.38563 20.1983 5.79605 18.3648 5.79605 18.3648C5.34105 17.1765 4.66689 16.871 4.66689 16.871C3.74022 16.2429 4.73439 16.2429 4.73439 16.2429C5.7623 16.3108 6.30168 17.2954 6.30168 17.2954C7.21147 18.8571 8.67751 18.4158 9.2673 18.1442C9.35147 17.4821 9.62126 17.0237 9.90772 16.7692C7.64959 16.5315 5.27376 15.6488 5.27376 11.7102C5.27376 10.5898 5.67793 9.67312 6.31834 8.96021C6.2173 8.70563 5.86334 7.65292 6.41959 6.24396C6.41959 6.24396 7.27897 5.97229 9.21668 7.29646C10.0463 7.07201 10.9018 6.95784 11.7613 6.95687C12.6206 6.95687 13.4967 7.07583 14.3056 7.29646C16.2436 5.97229 17.1029 6.24396 17.1029 6.24396C17.6592 7.65292 17.305 8.70563 17.204 8.96021C17.8613 9.67312 18.2488 10.5898 18.2488 11.7102C18.2488 15.6488 15.8729 16.5144 13.5979 16.7692C13.9688 17.0917 14.2888 17.7027 14.2888 18.6704C14.2888 20.0454 14.2721 21.149 14.2721 21.4883C14.2721 21.76 14.4575 22.0827 14.9629 21.9808C19.0071 20.6225 21.9223 16.786 21.9223 12.2535C21.939 6.58333 17.3725 2 11.7613 2Z" fill="#2E2D2C"/>
</g>
</svg>
