<?xml version="1.0" standalone="no"?>
<!DOCTYPE svg PUBLIC "-//W3C//DTD SVG 20010904//EN"
 "http://www.w3.org/TR/2001/REC-SVG-20010904/DTD/svg10.dtd">
<svg version="1.0" xmlns="http://www.w3.org/2000/svg"
 width="600px" height="300px" viewBox="0 0 513.000000 335.000000"
 preserveAspectRatio="xMidYMid meet">

<g transform="translate(0.000000,335.000000) scale(0.100000,-0.100000)"
fill="#000000" stroke="none">
<path d="M1867 2935 c-6 -204 -12 -292 -20 -298 -9 -7 -9 -10 1 -14 8 -3 12
-31 12 -91 0 -55 -4 -82 -9 -73 -8 12 -11 12 -25 -1 -14 -14 -13 -16 4 -21 13
-3 20 -14 20 -28 0 -21 -1 -21 -18 -6 -25 23 -34 21 -30 -5 2 -13 12 -25 23
-28 11 -3 21 -15 22 -25 2 -11 0 -14 -3 -7 -3 6 -14 12 -25 12 -14 0 -19 -7
-19 -25 0 -18 5 -25 19 -25 27 0 36 -19 14 -27 -19 -7 -43 -28 -43 -37 0 -3
12 -6 26 -6 21 0 25 -4 22 -22 -2 -16 -12 -24 -33 -28 -29 -6 -29 -6 -6 -12
20 -6 23 -11 18 -37 -5 -22 -3 -31 6 -31 18 0 16 -41 -2 -62 -9 -10 -28 -18
-43 -18 -42 0 -78 -17 -78 -38 0 -14 19 -28 71 -51 l70 -31 -3 -43 c-3 -42 -3
-42 -55 -56 -57 -15 -58 -17 -44 -54 7 -17 24 -30 53 -39 l42 -14 -3 -215 c-1
-118 -4 -216 -6 -218 -3 -3 -127 -24 -265 -46 -70 -11 -196 -38 -200 -42 -3
-3 8 -3 23 -1 16 3 25 2 20 -2 -14 -13 -122 -30 -156 -25 -25 4 -28 3 -12 -4
l20 -10 -20 0 c-11 0 -26 3 -32 7 -8 5 -23 81 -38 193 -13 101 -29 216 -34
254 -6 39 -13 97 -17 129 -3 33 -8 67 -9 75 -2 9 -4 48 -4 86 -1 50 -4 66 -11
55 -8 -12 -12 -12 -18 -2 -6 8 -11 -32 -15 -100 -3 -62 -10 -144 -16 -183 -6
-38 -25 -171 -41 -295 -17 -124 -32 -235 -35 -247 -4 -16 -17 -25 -48 -33 -87
-23 -254 -83 -321 -116 -37 -19 -69 -34 -71 -34 -4 0 -14 78 -20 160 -3 41 -8
86 -11 100 -3 13 -5 56 -5 96 0 55 -3 71 -14 71 -11 0 -15 -13 -15 -48 0 -26
-5 -60 -11 -76 -6 -15 -12 -50 -13 -78 -1 -27 -10 -106 -20 -175 l-18 -125
-54 -52 c-30 -28 -54 -56 -54 -61 0 -5 9 -21 20 -35 12 -14 20 -40 20 -61 0
-34 2 -36 34 -36 35 0 35 0 39 53 l3 52 2 -52 2 -53 1545 0 1545 0 0 51 c0 45
2 50 15 39 9 -7 15 -29 15 -51 0 -32 4 -39 19 -39 22 0 32 20 25 48 -6 22 54
92 80 92 13 0 16 -11 16 -54 0 -30 -4 -58 -10 -61 -5 -3 -10 -10 -10 -16 0 -5
232 -9 603 -8 550 0 600 1 580 16 -22 15 -23 22 -23 149 l0 133 -570 -1 c-554
0 -570 0 -570 -19 0 -17 -8 -19 -65 -19 -36 0 -65 -4 -65 -9 0 -6 9 -8 20 -6
11 2 20 -1 20 -7 0 -5 -6 -8 -14 -5 -7 3 -19 0 -25 -6 -8 -8 -11 -5 -11 11 0
13 -6 22 -15 22 -12 0 -15 17 -15 95 0 93 0 95 -30 117 -29 21 -30 24 -30 104
0 46 3 85 8 87 4 2 55 2 115 -1 l107 -5 0 -167 0 -167 248 -8 247 -7 49 26
c62 33 139 35 196 6 35 -18 59 -20 220 -20 l180 0 0 180 0 179 -40 -14 c-78
-28 -133 -29 -186 -6 -26 12 -63 33 -82 47 l-33 26 -80 -16 c-85 -17 -149 -19
-189 -6 -16 6 -4 7 35 4 l60 -4 -50 14 c-27 8 -53 15 -57 16 -4 0 -23 14 -42
31 -28 24 -42 30 -73 27 l-38 -3 55 -32 c30 -18 51 -33 45 -33 -14 0 -71 35
-131 81 -45 35 -55 38 -78 29 -66 -25 -146 -5 -210 51 l-46 41 0 -111 0 -111
-37 0 c-21 0 -75 3 -119 6 l-82 7 -5 46 c-3 25 -10 47 -16 49 -6 2 -11 23 -11
47 0 24 -3 51 -7 61 -6 16 -7 16 -15 -2 -6 -14 -7 -11 -3 9 7 36 -5 104 -15
87 -4 -7 -11 25 -15 71 -3 46 -8 95 -10 109 -2 14 -6 68 -10 120 -3 52 -8 111
-10 130 -2 19 -9 89 -15 155 -7 66 -13 121 -15 123 -1 1 -5 -50 -9 -115 -4
-65 -11 -161 -16 -213 -6 -52 -12 -122 -15 -155 -17 -171 -33 -275 -36 -224
-1 24 -38 -135 -39 -167 0 -16 -4 -34 -9 -40 -14 -15 -23 -64 -11 -64 5 0 10
-4 10 -10 0 -5 -7 -10 -15 -10 -8 0 -15 8 -15 18 0 10 -9 36 -20 57 -22 43
-44 194 -30 210 5 6 5 26 0 45 -4 19 -8 31 -9 26 -1 -5 -10 3 -21 17 -15 19
-20 39 -19 74 1 26 -1 57 -4 68 -3 11 -6 51 -6 89 -1 90 -8 82 -13 -16 -2 -43
-7 -81 -11 -84 -4 -4 -7 -30 -7 -59 0 -38 -5 -57 -20 -73 -31 -33 -37 -59 -28
-121 9 -62 -9 -173 -22 -136 -5 13 -9 0 -14 -40 -3 -33 -10 -65 -14 -71 -7
-10 -114 -18 -377 -28 -67 -3 -84 -1 -50 4 l50 7 -52 1 -53 2 0 100 c0 82 3
100 15 100 8 0 15 5 15 10 0 6 -6 10 -14 10 -21 0 -26 23 -26 121 0 73 -3 89
-15 89 -13 0 -15 18 -14 119 1 100 -2 126 -20 165 -11 25 -27 49 -35 52 -9 3
-13 10 -10 15 3 6 1 16 -6 24 -6 7 -10 19 -9 27 1 7 1 33 0 58 -2 64 -21 31
-21 -37 0 -32 -4 -53 -11 -53 -6 0 -9 -6 -6 -14 3 -8 -1 -17 -9 -20 -23 -9
-56 -93 -55 -139 2 -64 2 -160 2 -179 -1 -10 -7 -18 -13 -18 -9 0 -13 -22 -13
-77 0 -91 -10 -133 -30 -133 -8 0 -15 -4 -15 -10 0 -5 7 -10 15 -10 12 0 15
-19 15 -109 l0 -110 -47 -6 c-27 -3 -75 -10 -108 -15 -33 -4 -61 -7 -61 -6 -1
0 -5 96 -9 213 l-7 212 36 7 c45 8 66 27 66 59 0 19 -8 26 -37 34 -21 6 -44
11 -50 11 -9 0 -13 16 -13 45 l0 46 65 29 c54 24 65 33 65 53 0 26 -21 37 -70
37 -43 0 -76 60 -46 82 5 3 11 16 13 28 2 16 -1 21 -12 16 -8 -3 -15 -1 -15 4
0 4 13 11 30 15 25 5 28 9 17 20 -8 7 -22 14 -32 16 -29 6 -30 29 -1 29 13 0
28 5 31 10 3 6 0 10 -7 10 -9 0 -9 3 2 10 11 7 7 10 -17 10 -23 0 -33 5 -33
15 0 9 9 15 23 15 17 0 23 6 25 25 2 22 0 24 -18 13 -10 -7 -22 -9 -26 -6 -12
12 5 38 24 38 15 0 18 6 14 30 -4 27 -22 44 -22 20 0 -5 -4 -10 -10 -10 -18 0
-10 22 10 27 11 3 18 9 15 13 -3 5 -14 6 -25 3 -19 -5 -20 0 -20 80 0 59 4 87
13 90 9 4 9 8 -2 15 -11 8 -15 38 -15 126 -1 64 -4 116 -8 116 -4 0 -9 78 -10
173 -3 162 -3 156 -11 -118z m1423 -970 c0 -8 -2 -15 -4 -15 -2 0 -6 7 -10 15
-3 8 -1 15 4 15 6 0 10 -7 10 -15z m10 -49 c0 -3 -4 -8 -10 -11 -5 -3 -10 -1
-10 4 0 6 5 11 10 11 6 0 10 -2 10 -4z m-1063 -113 c-2 -21 -4 -4 -4 37 0 41
2 58 4 38 2 -21 2 -55 0 -75z m60 0 c-2 -21 -4 -4 -4 37 0 41 2 58 4 38 2 -21
2 -55 0 -75z m50 0 c-2 -21 -4 -6 -4 32 0 39 2 55 4 38 2 -18 2 -50 0 -70z
m953 -103 c0 -5 -4 -10 -10 -10 -5 0 -10 5 -10 10 0 6 5 10 10 10 6 0 10 -4
10 -10z m-343 -112 c-3 -7 -5 -2 -5 12 0 14 2 19 5 13 2 -7 2 -19 0 -25z m240
-80 c-3 -7 -5 -2 -5 12 0 14 2 19 5 13 2 -7 2 -19 0 -25z m-2072 -228 c17
-101 21 -146 14 -151 -8 -4 -7 -8 2 -12 8 -3 -2 -3 -21 0 -27 3 -31 2 -20 -6
11 -8 7 -9 -19 -4 -22 4 -32 3 -28 -4 4 -6 -3 -8 -18 -5 -14 2 -25 7 -25 11 0
5 68 409 71 421 1 5 5 -14 44 -250z m2175 210 c0 -5 -7 -10 -16 -10 -8 0 -12
5 -9 10 3 6 10 10 16 10 5 0 9 -4 9 -10z m10 -46 c0 -8 -9 -14 -20 -14 -19 0
-27 19 -14 33 10 9 34 -4 34 -19z m440 -74 c0 -5 -4 -10 -10 -10 -5 0 -10 5
-10 10 0 6 5 10 10 10 6 0 10 -4 10 -10z m230 -20 c0 -5 -4 -10 -10 -10 -5 0
-10 5 -10 10 0 6 5 10 10 10 6 0 10 -4 10 -10z m-563 -22 c-3 -8 -6 -5 -6 6
-1 11 2 17 5 13 3 -3 4 -12 1 -19z m453 18 c0 -11 -19 -15 -25 -6 -3 5 1 10 9
10 9 0 16 -2 16 -4z m-55 -26 c3 -5 -1 -10 -10 -10 -9 0 -13 5 -10 10 3 6 8
10 10 10 2 0 7 -4 10 -10z m-95 -10 c0 -5 -4 -10 -10 -10 -5 0 -10 5 -10 10 0
6 5 10 10 10 6 0 10 -4 10 -10z m260 6 c0 -11 -19 -15 -25 -6 -3 5 1 10 9 10
9 0 16 -2 16 -4z m-80 -26 c0 -5 -4 -10 -10 -10 -5 0 -10 5 -10 10 0 6 5 10
10 10 6 0 10 -4 10 -10z m-1751 -14 c-8 -7 -124 -18 -117 -11 4 4 31 10 60 14
50 7 67 6 57 -3z m1681 4 c0 -5 -2 -10 -4 -10 -3 0 -8 5 -11 10 -3 6 -1 10 4
10 6 0 11 -4 11 -10z m190 0 c0 -5 -4 -10 -10 -10 -5 0 -10 5 -10 10 0 6 5 10
10 10 6 0 10 -4 10 -10z m-2015 -20 c-11 -5 -33 -8 -50 -8 l-30 0 30 8 c17 4
39 8 50 8 l20 1 -20 -9z m1755 0 c0 -5 -4 -10 -10 -10 -5 0 -10 5 -10 10 0 6
5 10 10 10 6 0 10 -4 10 -10z m60 -10 c0 -5 -4 -10 -10 -10 -5 0 -10 5 -10 10
0 6 5 10 10 10 6 0 10 -4 10 -10z m-940 -6 c0 -3 -5 -15 -11 -27 -7 -12 -11
-57 -10 -104 l2 -83 -72 0 c-49 0 -78 -5 -88 -14 -14 -13 -23 -9 -76 30 -33
25 -61 51 -63 59 -4 18 -19 20 -24 4 -3 -8 -23 -9 -66 -4 l-62 7 0 52 0 53
168 12 c92 7 174 14 182 16 28 5 120 5 120 -1z m-1067 -11 c-7 -2 -21 -2 -30
0 -10 3 -4 5 12 5 17 0 24 -2 18 -5z m-213 -33 c-180 -32 -186 -32 -178 -25 7
8 278 54 313 53 17 0 -44 -13 -135 -28z m2508 18 c-3 -7 -13 -13 -23 -13 -10
0 -20 6 -22 13 -3 7 5 12 22 12 17 0 25 -5 23 -12z m-338 -2 c0 -11 -19 -15
-25 -6 -3 5 1 10 9 10 9 0 16 -2 16 -4z m70 -10 c0 -11 -19 -15 -25 -6 -3 5 1
10 9 10 9 0 16 -2 16 -4z m-1690 -61 c0 -30 -3 -35 -24 -35 -19 0 -23 -4 -19
-20 3 -13 -5 -32 -26 -55 l-31 -36 0 -149 c0 -134 -6 -171 -24 -142 -2 4 -6
109 -7 232 l-3 225 35 6 c19 4 49 7 67 8 30 1 32 -1 32 -34z m2278 23 c-3 -7
-13 -13 -23 -13 -10 0 -20 6 -22 13 -3 7 5 12 22 12 17 0 25 -5 23 -12z
m-2491 -151 c-2 -23 -3 -1 -3 48 0 50 1 68 3 42 2 -26 2 -67 0 -90z m1903 129
c0 -11 -19 -15 -25 -6 -3 5 1 10 9 10 9 0 16 -2 16 -4z m-2015 -49 c-4 -274
-4 -277 -22 -277 -17 -1 -17 -1 0 -14 12 -9 17 -27 17 -60 l0 -46 -120 0 c-66
0 -123 0 -127 0 -9 0 -28 378 -19 387 7 7 247 52 261 49 6 -2 10 -19 10 -39z
m1895 39 c0 -11 -19 -15 -25 -6 -3 5 1 10 9 10 9 0 16 -2 16 -4z m80 -30 c0
-11 -19 -15 -25 -6 -3 5 1 10 9 10 9 0 16 -2 16 -4z m218 -28 c-7 -19 -45 -21
-51 -4 -5 12 1 16 24 16 20 0 29 -4 27 -12z m-3534 -86 c4 -35 9 -69 12 -75 3
-10 -55 -57 -70 -57 -2 0 2 28 9 63 7 34 16 84 20 112 9 61 20 45 29 -43z
m3276 78 c0 -5 -4 -10 -10 -10 -5 0 -10 5 -10 10 0 6 5 10 10 10 6 0 10 -4 10
-10z m-2320 -189 l0 -189 -92 -6 c-51 -3 -115 -7 -143 -8 l-50 -2 -2 93 c-1
89 1 97 30 144 21 35 30 61 28 83 -3 35 -11 32 149 63 88 17 80 34 80 -178z
m2400 185 c0 -11 -19 -15 -25 -6 -3 5 1 10 9 10 9 0 16 -2 16 -4z m-120 -20
c0 -3 -4 -8 -10 -11 -5 -3 -10 -1 -10 4 0 6 5 11 10 11 6 0 10 -2 10 -4z m590
-10 c0 -3 -4 -8 -10 -11 -5 -3 -10 -1 -10 4 0 6 5 11 10 11 6 0 10 -2 10 -4z
m-3140 -26 c0 -5 -12 -10 -27 -10 -22 0 -25 2 -13 10 20 13 40 13 40 0z m2660
0 c0 -5 -4 -10 -9 -10 -6 0 -13 5 -16 10 -3 6 1 10 9 10 9 0 16 -4 16 -10z
m-2852 -84 c31 -52 32 -58 32 -160 l0 -106 -33 0 c-27 0 -245 -24 -424 -46
l-53 -7 0 47 c0 27 8 63 20 86 11 21 19 49 17 62 -2 19 9 28 68 57 56 27 315
120 335 120 3 0 20 -24 38 -53z m3472 40 c0 -11 -19 -15 -25 -6 -3 5 1 10 9
10 9 0 16 -2 16 -4z m-3293 -20 c1 -1 -7 -16 -17 -34 -15 -24 -27 -32 -47 -32
-16 0 -33 4 -38 8 -11 8 -45 58 -45 67 0 4 140 -4 147 -9z m2363 -117 c0 -5
-4 -9 -10 -9 -5 0 -10 7 -10 16 0 8 5 12 10 9 6 -3 10 -10 10 -16z m95 11 c3
-5 -1 -10 -10 -10 -9 0 -13 5 -10 10 3 6 8 10 10 10 2 0 7 -4 10 -10z m35 0
c0 -5 -5 -10 -11 -10 -5 0 -7 5 -4 10 3 6 8 10 11 10 2 0 4 -4 4 -10z m-3133
-67 c-3 -2 -18 -3 -34 -1 l-28 3 30 17 c26 14 30 14 33 1 2 -8 2 -17 -1 -20z
m-14 -39 c-7 -18 -69 -18 -76 0 -8 20 -3 22 42 18 29 -3 38 -8 34 -18z"/>
<path d="M2270 2355 c0 -9 5 -15 11 -13 6 2 11 8 11 13 0 5 -5 11 -11 13 -6 2
-11 -4 -11 -13z"/>
<path d="M3005 2120 c3 -5 8 -10 11 -10 2 0 4 5 4 10 0 6 -5 10 -11 10 -5 0
-7 -4 -4 -10z"/>
<path d="M3005 2070 c-4 -6 -3 -16 3 -22 13 -13 23 4 13 21 -7 10 -10 10 -16
1z"/>
<path d="M4502 1328 c5 -15 83 -63 118 -73 20 -6 16 -1 -15 22 -22 16 -46 37
-54 46 -16 20 -55 23 -49 5z"/>
<path d="M1318 1163 c6 -2 18 -2 25 0 6 3 1 5 -13 5 -14 0 -19 -2 -12 -5z"/>
<path d="M1278 1153 c7 -3 16 -2 19 1 4 3 -2 6 -13 5 -11 0 -14 -3 -6 -6z"/>
</g>
</svg>
