<svg width="17" height="16" viewBox="0 0 17 16" fill="none" xmlns="http://www.w3.org/2000/svg">
<path d="M0 1.85859C0 1.31985 0.188558 0.87541 0.565657 0.525253C0.942756 0.175079 1.433 0 2.03636 0C2.62896 0 3.10841 0.17238 3.47475 0.517172C3.85185 0.872727 4.0404 1.33602 4.0404 1.90707C4.0404 2.42424 3.85724 2.85521 3.49091 3.2C3.11381 3.55556 2.61818 3.73333 2.00404 3.73333H1.98788C1.39528 3.73333 0.91583 3.55556 0.549495 3.2C0.18316 2.84444 0 2.3973 0 1.85859ZM0.210101 16V5.20404H3.79798V16H0.210101ZM5.78586 16H9.37374V9.97172C9.37374 9.5946 9.41684 9.30369 9.50303 9.09899C9.65387 8.73265 9.88283 8.42288 10.1899 8.1697C10.497 7.91649 10.8821 7.7899 11.3455 7.7899C12.5522 7.7899 13.1556 8.60336 13.1556 10.2303V16H16.7434V9.8101C16.7434 8.21548 16.3663 7.00606 15.6121 6.18182C14.8579 5.35758 13.8613 4.94545 12.6222 4.94545C11.2323 4.94545 10.1495 5.54343 9.37374 6.73939V6.77172H9.35758L9.37374 6.73939V5.20404H5.78586C5.8074 5.54882 5.81818 6.62086 5.81818 8.4202C5.81818 10.2195 5.8074 12.7461 5.78586 16Z" fill="#2E2D2C"/>
</svg>
