<svg width="29" height="16" viewBox="0 0 29 16" fill="none" xmlns="http://www.w3.org/2000/svg">
<g clip-path="url(#clip0_217_134)">
<path d="M7.91667 0.0346451C12.2891 0.0346451 15.8333 3.60111 15.8333 8.00011C15.8333 12.3992 12.2888 15.9654 7.91667 15.9654C3.54474 15.9654 0 12.3992 0 8.00011C0 3.60122 3.54441 0.0346451 7.91667 0.0346451ZM20.5592 0.501204C22.7454 0.501204 24.5177 3.85828 24.5177 8.00011H24.518C24.518 12.141 22.7457 15.499 20.5596 15.499C18.3736 15.499 16.6012 12.141 16.6012 8.00011C16.6012 3.85937 18.3731 0.501204 20.5593 0.501204H20.5592ZM26.678 1.28234C27.4467 1.28234 28.0702 4.28999 28.0702 8.00022C28.0702 11.7092 27.4469 14.7181 26.678 14.7181C25.909 14.7181 25.2861 11.7101 25.2861 8.00022C25.2861 4.29021 25.9093 1.28234 26.678 1.28234Z" fill="#2E2D2C"/>
</g>
<defs>
<clipPath id="clip0_217_134">
<rect width="28.0702" height="16" fill="white"/>
</clipPath>
</defs>
</svg>
