<svg width="25" height="25" viewBox="0 0 25 25" fill="none" xmlns="http://www.w3.org/2000/svg">
<mask id="mask0_237_131" style="mask-type:alpha" maskUnits="userSpaceOnUse" x="0" y="0" width="25" height="25">
<rect x="0.867325" y="0.846733" width="24" height="24" fill="#D9D9D9"/>
</mask>
<g mask="url(#mask0_237_131)">
<path d="M18.8673 14.0967L20.8673 16.0967V20.8467C20.8673 21.3967 20.6715 21.8676 20.2798 22.2592C19.8882 22.6509 19.4173 22.8467 18.8673 22.8467H4.86732C4.31732 22.8467 3.84649 22.6509 3.45482 22.2592C3.06316 21.8676 2.86732 21.3967 2.86732 20.8467V6.84673C2.86732 6.29673 3.06316 5.8259 3.45482 5.43423C3.84649 5.04257 4.31732 4.84673 4.86732 4.84673H10.3673C10.234 5.14673 10.134 5.46757 10.0673 5.80923C10.0007 6.1509 9.95066 6.49673 9.91733 6.84673H4.86732V20.8467H18.8673V14.0967ZM20.1673 9.74673L23.3673 12.9467L21.9673 14.3467L18.7673 11.1467C18.4173 11.3467 18.0423 11.5134 17.6423 11.6467C17.2423 11.7801 16.8173 11.8467 16.3673 11.8467C15.1173 11.8467 14.0548 11.4092 13.1798 10.5342C12.3048 9.65923 11.8673 8.59673 11.8673 7.34673C11.8673 6.09673 12.3048 5.03423 13.1798 4.15923C14.0548 3.28423 15.1173 2.84673 16.3673 2.84673C17.6173 2.84673 18.6798 3.28423 19.5548 4.15923C20.4298 5.03423 20.8673 6.09673 20.8673 7.34673C20.8673 7.79673 20.8007 8.22173 20.6673 8.62173C20.534 9.02173 20.3673 9.39673 20.1673 9.74673ZM16.3673 9.84673C17.0673 9.84673 17.659 9.60507 18.1423 9.12173C18.6257 8.6384 18.8673 8.04673 18.8673 7.34673C18.8673 6.64673 18.6257 6.05507 18.1423 5.57173C17.659 5.0884 17.0673 4.84673 16.3673 4.84673C15.6673 4.84673 15.0757 5.0884 14.5923 5.57173C14.109 6.05507 13.8673 6.64673 13.8673 7.34673C13.8673 8.04673 14.109 8.6384 14.5923 9.12173C15.0757 9.60507 15.6673 9.84673 16.3673 9.84673ZM4.86732 20.8467V6.84673V13.8467V13.5467V20.8467Z" fill="#2E2D2C"/>
</g>
</svg>
