<svg width="20" height="16" viewBox="0 0 20 16" fill="none" xmlns="http://www.w3.org/2000/svg">
<path d="M19.7009 1.89981C19.1428 2.71648 18.4677 3.41229 17.6758 3.98722C17.6842 4.10389 17.6884 4.27889 17.6884 4.51223C17.6884 5.59537 17.53 6.67664 17.2131 7.75605C16.8962 8.83545 16.4149 9.87099 15.769 10.8627C15.1231 11.8543 14.3543 12.7314 13.4625 13.494C12.5707 14.2565 11.4957 14.8648 10.2376 15.3189C8.97942 15.773 7.63355 16 6.19994 16C3.94172 16 1.87508 15.3959 0 14.1877C0.291668 14.2208 0.616704 14.2374 0.975106 14.2374C2.85018 14.2374 4.5211 13.6625 5.98784 12.5126C5.11283 12.4958 4.32953 12.227 3.63792 11.7062C2.94632 11.1854 2.47125 10.5208 2.21271 9.71256C2.48758 9.75409 2.74168 9.77486 2.97502 9.77486C3.33342 9.77486 3.68762 9.72913 4.03763 9.63766C3.10429 9.44586 2.33125 8.98129 1.71851 8.24395C1.10577 7.50661 0.799405 6.65027 0.799405 5.67494V5.62523C1.36594 5.9421 1.97425 6.1129 2.62432 6.13764C2.07411 5.77084 1.63661 5.29157 1.31181 4.69983C0.987006 4.10809 0.824605 3.46642 0.824605 2.77482C0.824605 2.04168 1.00801 1.36244 1.37481 0.737105C2.38328 1.97891 3.61039 2.97268 5.05613 3.71842C6.50187 4.46416 8.04982 4.8788 9.69996 4.96233C9.63323 4.64546 9.59986 4.33723 9.59986 4.03763C9.59986 2.92088 9.99373 1.96888 10.7815 1.18161C11.5692 0.394336 12.5212 0.00046667 13.6375 0C14.8042 0 15.7874 0.424903 16.5873 1.27471C17.4954 1.09971 18.3497 0.774671 19.15 0.299602C18.8416 1.25814 18.2498 1.99991 17.3748 2.52492C18.1499 2.44138 18.9249 2.23301 19.6995 1.89981H19.7009Z" fill="#2E2D2C"/>
</svg>
