<?xml version="1.0" encoding="UTF-8"?>
<svg xmlns="http://www.w3.org/2000/svg" xmlns:xlink="http://www.w3.org/1999/xlink" width="24px" height="24px" viewBox="0 0 24 24" version="1.1">
<g id="surface1">
<path style=" stroke:none;fill-rule:nonzero;fill:rgb(0%,0%,0%);fill-opacity:1;" d="M 12 0 C 5.371094 0 0 5.371094 0 12 C 0 18.628906 5.371094 24 12 24 C 18.628906 24 24 18.628906 24 12 C 24 5.371094 18.628906 0 12 0 Z M 1.539062 12.75 L 4.113281 12.75 C 4.167969 13.996094 4.355469 15.132812 4.648438 16.15625 L 2.363281 16.15625 C 1.90625 15.101562 1.625 13.953125 1.539062 12.75 Z M 15.703125 11.25 C 15.644531 10.042969 15.503906 8.902344 15.308594 7.84375 L 17.765625 7.84375 C 18.09375 8.847656 18.320312 9.984375 18.386719 11.25 Z M 10.109375 16.15625 C 9.898438 14.988281 9.792969 13.847656 9.773438 12.75 L 14.226562 12.75 C 14.207031 13.847656 14.101562 14.988281 13.890625 16.15625 Z M 13.566406 17.65625 C 13.214844 19.007812 12.703125 20.382812 12 21.761719 C 11.296875 20.382812 10.785156 19.007812 10.433594 17.65625 Z M 9.792969 11.25 C 9.851562 10.039062 10.007812 8.894531 10.210938 7.84375 L 13.789062 7.84375 C 13.992188 8.894531 14.148438 10.039062 14.207031 11.25 Z M 10.546875 6.34375 C 11.015625 4.511719 11.59375 3.070312 12 2.179688 C 12.40625 3.070312 12.984375 4.511719 13.453125 6.34375 Z M 14.992188 6.34375 C 14.511719 4.359375 13.898438 2.765625 13.441406 1.738281 C 14.007812 2.140625 15.890625 3.632812 17.175781 6.34375 Z M 10.558594 1.738281 C 10.101562 2.765625 9.488281 4.359375 9.007812 6.34375 L 6.824219 6.34375 C 8.109375 3.628906 9.992188 2.140625 10.558594 1.738281 Z M 8.691406 7.84375 C 8.496094 8.902344 8.355469 10.042969 8.296875 11.25 L 5.613281 11.25 C 5.679688 9.984375 5.90625 8.847656 6.230469 7.84375 Z M 4.113281 11.25 L 1.539062 11.25 C 1.625 10.046875 1.90625 8.898438 2.363281 7.84375 L 4.660156 7.84375 C 4.363281 8.867188 4.171875 10.003906 4.113281 11.25 Z M 5.613281 12.75 L 8.277344 12.75 C 8.292969 13.851562 8.386719 14.988281 8.582031 16.15625 L 6.234375 16.15625 C 5.902344 15.148438 5.675781 14.015625 5.613281 12.75 Z M 8.894531 17.65625 C 9.261719 19.183594 9.808594 20.746094 10.59375 22.3125 C 10.0625 21.933594 8.132812 20.414062 6.824219 17.65625 Z M 13.402344 22.316406 C 14.191406 20.75 14.738281 19.1875 15.105469 17.65625 L 17.191406 17.65625 C 15.886719 20.429688 13.945312 21.933594 13.402344 22.316406 Z M 15.417969 16.15625 C 15.613281 14.988281 15.707031 13.851562 15.722656 12.75 L 18.386719 12.75 C 18.324219 14.015625 18.101562 15.152344 17.777344 16.15625 Z M 19.886719 12.75 L 22.460938 12.75 C 22.375 13.953125 22.09375 15.101562 21.636719 16.15625 L 19.351562 16.15625 C 19.644531 15.132812 19.832031 13.996094 19.886719 12.75 Z M 19.886719 11.25 C 19.828125 10.003906 19.632812 8.867188 19.339844 7.84375 L 21.636719 7.84375 C 22.09375 8.898438 22.375 10.046875 22.460938 11.25 Z M 20.832031 6.34375 L 18.8125 6.34375 C 18.140625 4.726562 17.265625 3.449219 16.445312 2.5 C 18.242188 3.347656 19.765625 4.683594 20.832031 6.34375 Z M 7.554688 2.5 C 6.734375 3.449219 5.859375 4.726562 5.1875 6.34375 L 3.167969 6.34375 C 4.234375 4.683594 5.757812 3.347656 7.554688 2.5 Z M 3.167969 17.65625 L 5.175781 17.65625 C 5.835938 19.257812 6.699219 20.53125 7.515625 21.480469 C 5.734375 20.632812 4.226562 19.304688 3.167969 17.65625 Z M 16.484375 21.480469 C 17.300781 20.53125 18.164062 19.257812 18.824219 17.65625 L 20.832031 17.65625 C 19.773438 19.304688 18.265625 20.632812 16.484375 21.480469 Z M 16.484375 21.480469 "/>
</g>
</svg>
